<svg width="575" height="475" viewBox="0 0 575 475" fill="none" xmlns="http://www.w3.org/2000/svg">
<path d="M571.338 246.337L346.338 471.337C343.994 473.681 340.815 474.997 337.5 474.997C334.185 474.997 331.006 473.681 328.662 471.337C326.318 468.993 325.001 465.814 325.001 462.499C325.001 459.184 326.318 456.005 328.662 453.661L532.323 249.999H12.5C9.18479 249.999 6.00537 248.682 3.66117 246.338C1.31696 243.993 0 240.814 0 237.499C0 234.183 1.31696 231.004 3.66117 228.66C6.00537 226.316 9.18479 224.999 12.5 224.999H532.323L328.662 21.3366C326.318 18.9926 325.001 15.8135 325.001 12.4987C325.001 9.18381 326.318 6.00473 328.662 3.66077C331.006 1.31682 334.185 8.55549e-08 337.5 0C340.815 -8.55549e-08 343.994 1.31682 346.338 3.66077L571.338 228.661C572.499 229.821 573.42 231.199 574.048 232.715C574.677 234.232 575 235.857 575 237.499C575 239.14 574.677 240.765 574.048 242.282C573.42 243.798 572.499 245.176 571.338 246.337Z" fill="black"/>
</svg>
